<svg width="36" height="27" viewBox="0 0 36 27" fill="none" xmlns="http://www.w3.org/2000/svg">
<path d="M35.4471 24.4354C35.4255 24.3738 35.4002 24.3136 35.3713 24.2551L24.6176 2.5265C24.0652 1.24957 22.9148 0.330285 21.5474 0.0731674C20.1801 -0.183949 18.7743 0.25466 17.7958 1.24371L15.1535 6.27443L8.81238 19.6309C7.76537 21.6488 6.11436 22.9851 4.14753 23.4528L13.8571 3.90251C13.8765 3.86273 13.8945 3.82237 13.9111 3.78143C14.0698 3.42466 14.4239 3.19497 14.8144 3.19549C14.8511 3.19611 14.8877 3.19883 14.9241 3.20362L16.521 0.363054C15.4979 -0.0931492 14.3347 -0.120494 13.2913 0.287132C12.2478 0.694757 11.4112 1.50338 10.9683 2.53231L0.203305 24.2109C0.186759 24.242 0.171386 24.2737 0.156863 24.3065C-0.082387 24.836 -0.0462204 25.4493 0.253469 25.9471C0.55324 26.4449 1.07834 26.7637 1.65834 26.8001C1.95128 26.8244 2.24769 26.8366 2.54066 26.8366C6.39456 26.8366 9.80567 24.6831 11.6642 21.0748C11.6721 21.0594 11.68 21.044 11.6872 21.028L17.7377 8.28225L17.7394 8.27818L17.7932 8.16552L19.5643 4.4446L19.5617 4.43908L19.8282 3.87753C19.8395 3.85392 19.85 3.8302 19.8599 3.8064C20.0132 3.43657 20.3742 3.19548 20.7745 3.19548C21.1749 3.19548 21.5358 3.43657 21.6892 3.8064C21.7022 3.83863 21.7182 3.87056 21.7324 3.90192L31.4077 23.4519C29.4547 22.9827 27.8119 21.6474 26.7664 19.6314L20.3988 6.20242L18.6407 9.95267L23.8909 21.0257C23.8985 21.0414 23.9063 21.0574 23.9141 21.0731C25.8015 24.735 29.1161 26.8349 33.0113 26.8349C33.3188 26.8349 33.6301 26.8213 33.9364 26.7945C34.1304 26.7779 34.3196 26.7257 34.4947 26.6406C35.3465 26.2734 35.7645 25.307 35.4471 24.4354Z" fill="white"/>
</svg>
